<?xml version="1.0" standalone="no"?>
<!DOCTYPE svg PUBLIC "-//W3C//DTD SVG 20010904//EN"
 "http://www.w3.org/TR/2001/REC-SVG-20010904/DTD/svg10.dtd">
<svg version="1.0" xmlns="http://www.w3.org/2000/svg"
 width="300.000000pt" height="360.000000pt" viewBox="0 0 300.000000 360.000000"
 preserveAspectRatio="xMidYMid meet">
<metadata>
Created by potrace 1.10, written by Peter Selinger 2001-2011
</metadata>
<g transform="translate(0.000000,360.000000) scale(0.100000,-0.100000)"
fill="#000000" stroke="none">
<path d="M680 2029 l0 -80 -25 19 c-34 27 -117 46 -162 37 -89 -16 -174 -92
-195 -172 l-10 -43 -64 0 c-36 0 -64 -4 -64 -10 0 -6 28 -10 64 -10 l63 0 6
-41 c14 -102 106 -186 215 -196 50 -5 69 -1 116 20 l56 26 0 -80 c0 -46 4 -79
10 -79 6 0 10 37 10 90 0 79 3 95 24 128 54 83 54 183 1 264 -22 33 -25 49
-25 123 0 50 -4 85 -10 85 -6 0 -10 -34 -10 -81z m-49 -70 c23 -11 39 -22 37
-24 -2 -3 -36 -16 -198 -83 -12 -5 -13 -3 -3 10 7 8 10 18 6 21 -3 4 -12 -1
-20 -11 -12 -16 -13 -15 -11 8 1 14 -2 26 -7 27 -6 2 -9 -22 -7 -57 l4 -60
-61 0 c-68 0 -71 3 -42 65 53 117 186 163 302 104z m88 -89 c32 -57 33 -138 3
-197 -12 -23 -26 -44 -32 -48 -5 -3 -63 15 -127 40 l-118 47 -2 54 c-2 52 -2
54 18 43 24 -12 41 -3 19 11 -8 5 -12 10 -10 12 15 11 207 85 215 84 6 -2 21
-22 34 -46z m-291 -175 c-3 -59 0 -75 11 -75 10 0 12 9 8 35 -3 19 -4 35 -2
35 2 0 54 -20 116 -44 l113 -44 -34 -21 c-74 -44 -182 -37 -250 18 -39 32 -79
103 -80 144 0 27 1 27 61 27 l61 0 -4 -75z"/>
<path d="M913 1770 l1 -185 3 160 c2 89 8 162 13 165 6 4 4 14 -5 26 -13 17
-14 -1 -12 -166z"/>
<path d="M1058 1871 c-23 -44 -46 -81 -49 -81 -3 0 -16 23 -29 50 -13 28 -28
50 -33 50 -5 0 -7 -4 -5 -9 8 -25 64 -130 68 -130 3 -1 23 35 45 80 l40 80 3
-161 c1 -88 6 -160 10 -160 7 0 6 350 -2 357 -2 3 -24 -32 -48 -76z"/>
<path d="M1232 1772 c-37 -110 -56 -182 -49 -182 7 0 32 64 56 143 25 78 48
145 51 149 3 4 28 -60 55 -142 27 -83 54 -150 60 -150 6 0 -14 74 -45 168 -32
92 -59 174 -62 182 -2 8 -32 -67 -66 -168z"/>
<path d="M1470 1875 c0 -43 4 -75 10 -75 6 0 10 29 10 66 l0 67 36 -6 c46 -8
71 -30 84 -76 22 -79 -27 -151 -101 -151 -22 0 -39 -5 -39 -11 0 -6 18 -9 46
-8 46 3 47 3 70 -44 14 -26 29 -47 34 -47 15 0 13 7 -15 55 l-26 43 26 37 c33
50 35 129 3 170 -24 30 -74 55 -113 55 -25 0 -25 -1 -25 -75z"/>
<path d="M1690 1820 c0 -71 4 -130 9 -130 10 0 151 236 151 253 0 21 -22 -10
-81 -115 l-59 -103 0 113 c0 68 -4 112 -10 112 -6 0 -10 -50 -10 -130z"/>
<path d="M1916 1942 c-3 -5 14 -12 41 -15 73 -8 113 -65 99 -141 -10 -55 -36
-79 -92 -85 l-49 -6 -3 -52 c-2 -39 1 -53 10 -53 9 0 12 13 10 45 l-4 45 37 0
c49 0 100 49 109 106 9 50 -15 116 -49 138 -30 20 -100 31 -109 18z"/>
<path d="M2195 1770 c-34 -101 -56 -180 -50 -180 6 0 32 68 58 150 26 83 49
150 51 150 2 0 25 -67 52 -150 29 -91 53 -150 60 -150 9 0 -5 54 -45 168 -32
92 -60 173 -62 179 -2 7 -31 -68 -64 -167z"/>
<path d="M2432 1803 c4 -156 10 -180 54 -204 12 -6 28 -9 35 -7 9 3 2 10 -16
19 -47 23 -55 50 -55 202 0 93 -4 137 -11 137 -8 0 -10 -44 -7 -147z"/>
<path d="M2630 1806 c0 -130 -2 -146 -21 -170 -11 -14 -29 -26 -40 -26 -10 0
-19 -4 -19 -10 0 -19 37 -10 62 15 14 14 28 39 32 56 10 52 7 279 -4 279 -6 0
-10 -55 -10 -144z"/>
<path d="M2700 1816 c0 -79 4 -137 10 -141 6 -4 10 43 10 134 0 87 -4 141 -10
141 -6 0 -10 -51 -10 -134z"/>
<path d="M1750 1745 c0 -16 87 -155 97 -155 13 0 -77 159 -89 160 -5 0 -8 -2
-8 -5z"/>
<path d="M1270 1684 c0 -21 24 -94 31 -94 11 0 11 2 -2 56 -6 24 -15 44 -20
44 -5 0 -9 -3 -9 -6z"/>
<path d="M2233 1676 c3 -8 9 -31 13 -50 6 -33 24 -51 24 -25 0 25 -24 89 -33
89 -5 0 -7 -6 -4 -14z"/>
<path d="M2700 1620 l0 -30 70 0 c43 0 70 4 70 11 0 7 -20 8 -60 4 -59 -6 -60
-6 -60 19 0 15 -4 26 -10 26 -5 0 -10 -13 -10 -30z"/>
</g>
</svg>
